<svg width="235" height="202" viewBox="0 0 235 202" fill="none" xmlns="http://www.w3.org/2000/svg">
<g clip-path="url(#clip0)">
<path d="M231.356 158.961L123.23 195.581C121.883 196.036 120.412 195.936 119.138 195.305C117.865 194.673 116.893 193.561 116.437 192.213L66.3516 43.7103C65.8982 42.3609 65.9974 40.8865 66.6275 39.6103C67.2576 38.3342 68.3671 37.3606 69.7127 36.9032L177.839 0.283179C179.186 -0.171181 180.657 -0.0717362 181.931 0.559693C183.204 1.19112 184.176 2.30297 184.632 3.65131L234.717 152.154C235.171 153.503 235.072 154.978 234.442 156.254C233.811 157.53 232.702 158.504 231.356 158.961V158.961Z" fill="#D8DFF7"/>
<path d="M228.597 156.219L123.763 191.723C122.854 192.03 121.859 191.963 120.999 191.537C120.139 191.11 119.482 190.359 119.174 189.448L70.2013 44.245C69.8949 43.3332 69.9619 42.3369 70.3877 41.4747C70.8135 40.6124 71.5631 39.9546 72.4723 39.6456L177.305 4.14086C178.215 3.83386 179.21 3.90105 180.07 4.3277C180.93 4.75434 181.587 5.50558 181.895 6.41662L230.868 151.619C231.174 152.531 231.107 153.527 230.681 154.39C230.256 155.252 229.506 155.91 228.597 156.219V156.219Z" fill="#464353"/>
<path d="M202.243 201.565H88.1079C86.6871 201.563 85.3249 200.997 84.3202 199.99C83.3155 198.983 82.7504 197.618 82.7488 196.194V39.4394C82.7504 38.0156 83.3155 36.6506 84.3202 35.6438C85.3249 34.637 86.6871 34.0707 88.1079 34.0691H202.243C203.664 34.0707 205.026 34.637 206.031 35.6438C207.035 36.6506 207.6 38.0156 207.602 39.4394V196.194C207.6 197.618 207.035 198.983 206.031 199.99C205.026 200.997 203.664 201.563 202.243 201.565V201.565Z" fill="#D8DFF7"/>
<path d="M200.505 198.081H89.8461C88.8861 198.08 87.9657 197.697 87.2869 197.017C86.608 196.337 86.2262 195.415 86.2251 194.453V41.1811C86.2262 40.219 86.608 39.2967 87.2869 38.6165C87.9657 37.9362 88.8861 37.5536 89.8461 37.5525H200.505C201.465 37.5536 202.385 37.9362 203.064 38.6165C203.743 39.2967 204.125 40.219 204.126 41.1811V194.453C204.125 195.415 203.743 196.337 203.064 197.017C202.385 197.697 201.465 198.08 200.505 198.081V198.081Z" fill="#464353"/>
<path d="M176.931 81.0307H103.844C103.228 81.0307 102.637 80.7856 102.202 80.3493C101.767 79.9131 101.522 79.3213 101.522 78.7043C101.522 78.0873 101.767 77.4956 102.202 77.0593C102.637 76.623 103.228 76.3779 103.844 76.3779H176.931C177.547 76.3779 178.137 76.623 178.572 77.0593C179.008 77.4956 179.252 78.0873 179.252 78.7043C179.252 79.3213 179.008 79.9131 178.572 80.3493C178.137 80.7856 177.547 81.0307 176.931 81.0307Z" fill="#D8DFF7"/>
<path d="M186.507 88.8823H103.844C103.539 88.8823 103.237 88.8221 102.955 88.7052C102.673 88.5883 102.418 88.4169 102.202 88.2009C101.986 87.9849 101.815 87.7284 101.699 87.4462C101.582 87.1639 101.522 86.8614 101.522 86.5559C101.522 86.2504 101.582 85.9479 101.699 85.6656C101.815 85.3834 101.986 85.1269 102.202 84.9109C102.418 84.6948 102.673 84.5235 102.955 84.4066C103.237 84.2897 103.539 84.2295 103.844 84.2295H186.507C187.123 84.2295 187.713 84.4746 188.149 84.9109C188.584 85.3472 188.829 85.9389 188.829 86.5559C188.829 87.1729 188.584 87.7646 188.149 88.2009C187.713 88.6372 187.123 88.8823 186.507 88.8823V88.8823Z" fill="#1E1C26"/>
<path d="M176.931 116.217H103.844C103.228 116.217 102.639 115.971 102.204 115.535C101.769 115.099 101.525 114.508 101.525 113.891C101.525 113.274 101.769 112.683 102.204 112.247C102.639 111.811 103.228 111.565 103.844 111.565H176.931C177.547 111.565 178.137 111.81 178.573 112.246C179.008 112.682 179.253 113.274 179.253 113.891C179.253 114.508 179.008 115.1 178.573 115.536C178.137 115.972 177.547 116.217 176.931 116.217Z" fill="#D8DFF7"/>
<path d="M186.507 124.069H103.844C103.228 124.068 102.639 123.823 102.204 123.387C101.769 122.951 101.525 122.359 101.525 121.743C101.525 121.126 101.769 120.535 102.204 120.099C102.639 119.662 103.228 119.417 103.844 119.416H186.507C187.123 119.416 187.714 119.661 188.149 120.098C188.584 120.534 188.829 121.126 188.829 121.743C188.829 122.36 188.584 122.951 188.149 123.388C187.714 123.824 187.123 124.069 186.507 124.069V124.069Z" fill="#1E1C26"/>
<path d="M176.931 151.404H103.844C103.228 151.403 102.639 151.158 102.204 150.722C101.769 150.286 101.525 149.694 101.525 149.078C101.525 148.461 101.769 147.87 102.204 147.434C102.639 146.997 103.228 146.752 103.844 146.751H176.931C177.547 146.751 178.137 146.996 178.573 147.433C179.008 147.869 179.253 148.461 179.253 149.078C179.253 149.695 179.008 150.286 178.573 150.723C178.137 151.159 177.547 151.404 176.931 151.404Z" fill="#D8DFF7"/>
<path d="M186.507 159.256H103.844C103.228 159.256 102.637 159.011 102.202 158.574C101.767 158.138 101.522 157.546 101.522 156.929C101.522 156.312 101.767 155.721 102.202 155.284C102.637 154.848 103.228 154.603 103.844 154.603H186.507C187.123 154.603 187.713 154.848 188.149 155.284C188.584 155.721 188.829 156.312 188.829 156.929C188.829 157.546 188.584 158.138 188.149 158.574C187.713 159.011 187.123 159.256 186.507 159.256V159.256Z" fill="#1E1C26"/>
<path d="M59.238 107.588H42.4364C42.0908 107.588 41.7594 107.45 41.515 107.205C41.2707 106.96 41.1332 106.628 41.1328 106.282V99.0248C41.1328 96.4457 42.1552 93.9722 43.9752 92.1484C45.7951 90.3247 48.2634 89.3002 50.8372 89.3002C53.4109 89.3002 55.8793 90.3247 57.6992 92.1484C59.5191 93.9722 60.5415 96.4457 60.5415 99.0248V106.282C60.5411 106.628 60.4037 106.96 60.1593 107.205C59.9149 107.45 59.5836 107.588 59.238 107.588Z" fill="#464353"/>
<path d="M85.1698 145.463C84.7445 145.44 84.3292 145.325 83.9533 145.124C83.5773 144.924 83.2498 144.643 82.9938 144.302C82.7378 143.961 82.5595 143.568 82.4715 143.151C82.3835 142.733 82.3879 142.301 82.4845 141.886L73.7288 136.352L78.6293 134.129L86.1926 139.725C86.8786 139.933 87.4644 140.387 87.8389 141C88.2134 141.612 88.3506 142.342 88.2245 143.049C88.0984 143.756 87.7178 144.392 87.1548 144.837C86.5918 145.282 85.8855 145.505 85.1698 145.463V145.463Z" fill="#FFB8B8"/>
<path d="M79.1278 140.948C78.8301 140.92 78.5465 140.807 78.3108 140.623L54.2239 121.913L51.1182 116.379C50.8178 115.846 50.683 115.236 50.7309 114.626C50.7788 114.016 51.0074 113.435 51.3873 112.956V112.956C51.6502 112.623 51.9789 112.348 52.3528 112.149C52.7267 111.949 53.1377 111.829 53.56 111.796C53.9824 111.763 54.4069 111.818 54.8071 111.958C55.2073 112.097 55.5745 112.317 55.8856 112.606L82.7334 134.426C82.907 134.544 83.0555 134.695 83.17 134.871C83.2846 135.047 83.3629 135.244 83.4004 135.451C83.4379 135.657 83.4338 135.87 83.3884 136.075C83.343 136.28 83.2571 136.474 83.1359 136.645L80.562 140.287C80.4397 140.462 80.2832 140.609 80.102 140.721C79.9207 140.832 79.7187 140.906 79.5082 140.936C79.3823 140.955 79.2546 140.959 79.1278 140.948V140.948Z" fill="#D8DFF7"/>
<path d="M22.3618 194.514L25.6541 195.849L32.3588 183.759L27.4999 181.789L22.3618 194.514Z" fill="#FFB8B8"/>
<path d="M21.9569 193.096L28.4403 195.725L28.4405 195.725C28.9831 195.945 29.4771 196.27 29.8944 196.681C30.3117 197.093 30.644 197.583 30.8724 198.123C31.1008 198.663 31.2208 199.242 31.2256 199.829C31.2304 200.416 31.1198 200.997 30.9002 201.541L30.8459 201.675L20.2307 197.371L21.9569 193.096Z" fill="#8B98C5"/>
<path d="M60.723 198.226L64.2745 198.225L65.9642 184.498L60.7224 184.498L60.723 198.226Z" fill="#FFB8B8"/>
<path d="M59.8171 197.064L66.8112 197.063C67.3965 197.063 67.9764 197.179 68.5172 197.403C69.0579 197.628 69.5493 197.957 69.9632 198.372C70.3771 198.786 70.7054 199.279 70.9294 199.821C71.1534 200.363 71.2687 200.943 71.2687 201.53V201.675L59.8174 201.675L59.8171 197.064Z" fill="#8B98C5"/>
<path d="M63.6491 190.465C62.2385 190.465 60.8553 189.889 60.0919 189.506C59.894 189.408 59.7214 189.265 59.5872 189.09C59.4531 188.914 59.3611 188.71 59.3183 188.492L51.8325 150.672L32.4121 187.083C32.2376 187.411 31.9442 187.659 31.5924 187.776C27.4097 189.176 25.1286 186.973 24.3418 185.961C24.1817 185.753 24.0819 185.505 24.0534 185.244C24.0249 184.984 24.0687 184.72 24.1801 184.482L33.1744 164.902L38.6128 146.303L44.1099 132.691L44.2299 132.704L62.6114 134.643L64.8466 146.961L67.0976 187.977C67.1177 188.304 67.0248 188.628 66.8345 188.894C66.4746 189.4 65.9952 189.808 65.4393 190.082C64.8834 190.356 64.2683 190.488 63.6491 190.465V190.465Z" fill="#D8DFF7"/>
<path d="M53.2321 107.478C57.1615 107.478 60.347 104.286 60.347 100.348C60.347 96.4106 57.1615 93.2185 53.2321 93.2185C49.3026 93.2185 46.1172 96.4106 46.1172 100.348C46.1172 104.286 49.3026 107.478 53.2321 107.478Z" fill="#FFB8B8"/>
<path d="M55.7063 140.305C52.6088 140.305 48.7762 138.488 44.2752 134.88L44.1985 134.818L47.3808 109.661L47.5294 109.655C52.0812 109.491 55.7855 110.649 58.8523 113.205L58.8786 113.232L61.3654 116.436L61.3665 116.494L61.7171 136.172L61.7082 136.2C61.3789 137.101 60.8475 137.914 60.155 138.576C59.4626 139.238 58.6277 139.732 57.7146 140.02C57.0627 140.213 56.3861 140.309 55.7063 140.305Z" fill="#464353"/>
<path d="M60.2879 152.066C59.9402 152.065 59.6024 151.95 59.3267 151.738C59.0511 151.525 58.853 151.228 58.763 150.891L54.3945 134.318L51.627 149.417C51.5543 149.818 51.3297 150.174 51.0002 150.413C50.6708 150.651 50.262 150.753 49.8596 150.696L37.8088 149.01C37.5791 148.978 37.3593 148.896 37.1651 148.769C36.9709 148.642 36.8071 148.473 36.6854 148.275C36.5636 148.078 36.487 147.855 36.4609 147.624C36.4348 147.393 36.46 147.16 36.5345 146.939L42.6302 128.936L41.2656 118.387C41.1251 117.301 41.2116 116.197 41.5196 115.146C41.8275 114.095 42.3502 113.12 43.0544 112.283C43.7587 111.445 44.629 110.763 45.6103 110.281C46.5915 109.798 47.6622 109.526 48.7542 109.48L48.8764 109.475L54.6726 123.483L55.5945 119.788L57.0372 111.835L57.2526 111.96C59.2894 113.136 60.9641 114.851 62.0939 116.917C63.2237 118.984 63.765 121.321 63.6586 123.675L63.2931 132.099L66.5316 149.298C66.6083 149.709 66.5195 150.134 66.2845 150.479C66.0496 150.825 65.6878 151.063 65.278 151.142L60.5812 152.038C60.4845 152.057 60.3863 152.066 60.2879 152.066Z" fill="#D8DFF7"/>
<path d="M62.8372 99.7505H52.5635L52.4581 98.2724L51.9314 99.7505H50.3494L50.1406 96.8209L49.0966 99.7505H46.0356V99.6053C46.0379 97.5658 46.8474 95.6105 48.2866 94.1684C49.7257 92.7262 51.6769 91.915 53.7122 91.9127H55.1606C57.1959 91.915 59.1471 92.7262 60.5863 94.1684C62.0254 95.6105 62.8349 97.5658 62.8372 99.6053V99.7505Z" fill="#464353"/>
<path d="M230.877 202H0.289683C0.212854 202 0.139172 201.969 0.0848458 201.915C0.0305198 201.861 0 201.787 0 201.71C0 201.633 0.0305198 201.559 0.0848458 201.504C0.139172 201.45 0.212854 201.419 0.289683 201.419H230.877C230.954 201.419 231.027 201.45 231.082 201.504C231.136 201.559 231.167 201.633 231.167 201.71C231.167 201.787 231.136 201.861 231.082 201.915C231.027 201.969 230.954 202 230.877 202Z" fill="#CCCCCC"/>
<path d="M55.9531 144.005C55.9526 144.471 56.0521 144.931 56.2446 145.355C56.4372 145.779 56.7184 146.156 57.0692 146.461C57.42 146.767 57.8322 146.993 58.2779 147.124C58.7236 147.256 59.1923 147.29 59.6523 147.225C60.0768 148.201 60.7763 149.031 61.6651 149.615C62.5539 150.198 63.5933 150.509 64.6558 150.509V150.509C65.3725 150.509 66.0821 150.367 66.7443 150.093C67.4064 149.818 68.0081 149.415 68.5149 148.907C69.0216 148.399 69.4237 147.796 69.6979 147.133C69.9722 146.469 70.1134 145.758 70.1134 145.04V140.301C70.1134 139.082 69.1266 138.673 67.9095 138.673H61.402C60.1849 138.673 59.1982 139.082 59.1982 140.301V140.753C58.3378 140.754 57.513 141.097 56.9047 141.707C56.2963 142.317 55.9541 143.143 55.9531 144.005V144.005ZM56.8381 144.005C56.8389 143.378 57.0877 142.777 57.5302 142.334C57.9726 141.89 58.5725 141.641 59.1982 141.64V145.04C59.1982 145.486 59.2524 145.93 59.3597 146.362C59.3061 146.366 59.2527 146.37 59.1982 146.37C58.5725 146.37 57.9726 146.12 57.5302 145.677C57.0877 145.233 56.8389 144.632 56.8381 144.005H56.8381Z" fill="#8B98C5"/>
<path d="M58.5665 143.224C58.3685 142.846 58.0903 142.516 57.7515 142.257C57.4126 141.999 57.0213 141.818 56.6051 141.728C56.1889 141.637 55.758 141.639 55.3427 141.734C54.9274 141.828 54.5378 142.013 54.2014 142.274L45.5247 136.617L45.5577 142.007L53.7922 146.553C54.2683 147.09 54.9245 147.434 55.6365 147.519C56.3485 147.604 57.0668 147.424 57.6553 147.013C58.2438 146.603 58.6616 145.99 58.8295 145.292C58.9975 144.593 58.9039 143.857 58.5665 143.224H58.5665Z" fill="#FFB8B8"/>
<path d="M49.1714 146.514C48.8257 146.513 48.4941 146.376 48.2496 146.131L37.2011 135.059C36.8481 134.708 36.5905 134.272 36.4528 133.793C36.315 133.313 36.3017 132.807 36.4141 132.321C37.3598 128.178 39.6644 118.278 40.6374 115.841C41.3475 114.008 42.6619 112.473 44.3624 111.493L44.4058 111.471L47.9036 112.118L48.2119 122.93L43.9866 132.003L52.9708 140.501C53.2072 140.724 53.3522 141.026 53.3773 141.35C53.4024 141.674 53.3057 141.995 53.1064 142.251L50.2018 146.007C50.0884 146.154 49.9452 146.275 49.7817 146.361C49.6182 146.448 49.4381 146.499 49.2534 146.511C49.2261 146.513 49.1987 146.514 49.1714 146.514Z" fill="#D8DFF7"/>
<path d="M64.6437 140.169C66.8835 140.169 68.6993 139.909 68.6993 139.588C68.6993 139.268 66.8835 139.008 64.6437 139.008C62.4039 139.008 60.5881 139.268 60.5881 139.588C60.5881 139.909 62.4039 140.169 64.6437 140.169Z" fill="#2F2E41"/>
</g>
<defs>
<clipPath id="clip0">
<rect width="235" height="202" fill="white"/>
</clipPath>
</defs>
</svg>
