<svg width="25" height="24" viewBox="0 0 25 24" fill="none" xmlns="http://www.w3.org/2000/svg">
<path d="M12.7651 22C18.288 22 22.7651 17.5228 22.7651 12C22.7651 6.47715 18.288 2 12.7651 2C7.24229 2 2.76514 6.47715 2.76514 12C2.76514 17.5228 7.24229 22 12.7651 22Z" stroke="#D8DFF7" stroke-width="2" stroke-linecap="round" stroke-linejoin="round"/>
<path d="M9.85522 8.99996C10.0903 8.33163 10.5544 7.76807 11.1652 7.40909C11.776 7.05012 12.4941 6.9189 13.1924 7.03867C13.8907 7.15844 14.524 7.52148 14.9803 8.06349C15.4366 8.60549 15.6863 9.29148 15.6852 9.99996C15.6852 12 12.6852 13 12.6852 13" stroke="#D8DFF7" stroke-width="2" stroke-linecap="round" stroke-linejoin="round"/>
<path d="M12.7651 17H12.7751" stroke="#D8DFF7" stroke-width="2" stroke-linecap="round" stroke-linejoin="round"/>
</svg>
