<svg width="108" height="72" viewBox="0 0 108 72" fill="none" xmlns="http://www.w3.org/2000/svg">
<path d="M0.19751 46.5476H14.5975V48.8876H8.65751V71.7476H6.13751V48.8876H0.19751V46.5476Z" fill="#1E1C26"/>
<path d="M41.8993 46.5476H44.4193V67.4276C44.4193 68.8196 44.0473 69.8876 43.3033 70.6316C42.5833 71.3756 41.5153 71.7476 40.0993 71.7476H33.5833C32.1673 71.7476 31.0873 71.3756 30.3433 70.6316C29.6233 69.8876 29.2633 68.8196 29.2633 67.4276V46.5476H31.7833V67.4996C31.7833 68.7956 32.4073 69.4436 33.6553 69.4436H40.0273C41.2753 69.4436 41.8993 68.7956 41.8993 67.4996V46.5476Z" fill="#1E1C26"/>
<path d="M61.2316 46.5476H71.8516C73.2676 46.5476 74.3356 46.9316 75.0556 47.6996C75.7996 48.4436 76.1716 49.4996 76.1716 50.8676V67.4276C76.1716 68.8196 75.7996 69.8876 75.0556 70.6316C74.3356 71.3756 73.2676 71.7476 71.8516 71.7476H61.2316V46.5476ZM71.7796 48.8876H63.7516V69.4436H71.7796C73.0276 69.4436 73.6516 68.7956 73.6516 67.4996V50.8316C73.6516 49.5356 73.0276 48.8876 71.7796 48.8876Z" fill="#1E1C26"/>
<path d="M105.273 46.5476H107.793V67.4276C107.793 68.8196 107.421 69.8876 106.677 70.6316C105.957 71.3756 104.889 71.7476 103.473 71.7476H96.9574C95.5414 71.7476 94.4614 71.3756 93.7174 70.6316C92.9974 69.8876 92.6374 68.8196 92.6374 67.4276V46.5476H95.1574V67.4996C95.1574 68.7956 95.7814 69.4436 97.0294 69.4436H103.401C104.649 69.4436 105.273 68.7956 105.273 67.4996V46.5476Z" fill="#1E1C26"/>
<path d="M51.7266 2.5C42.0625 2.5 34.2266 10.3359 34.2266 20C34.2266 29.6641 42.0625 37.5 51.7266 37.5C61.3906 37.5 69.2266 29.6641 69.2266 20C69.2266 10.3359 61.3906 2.5 51.7266 2.5ZM59.2852 14.2852L51.0586 25.6914C50.9436 25.8519 50.792 25.9827 50.6164 26.0729C50.4408 26.1631 50.2462 26.2101 50.0488 26.2101C49.8514 26.2101 49.6568 26.1631 49.4812 26.0729C49.3056 25.9827 49.154 25.8519 49.0391 25.6914L44.168 18.9414C44.0195 18.7344 44.168 18.4453 44.4219 18.4453H46.2539C46.6523 18.4453 47.0312 18.6367 47.2656 18.9648L50.0469 22.8242L56.1875 14.3086C56.4219 13.9844 56.7969 13.7891 57.1992 13.7891H59.0312C59.2852 13.7891 59.4336 14.0781 59.2852 14.2852V14.2852Z" fill="#1E1C26"/>
</svg>
